<svg width="18" height="19" viewBox="0 0 18 19" fill="none" xmlns="http://www.w3.org/2000/svg">
<path d="M5.44319 3.66444C5.73965 3.66444 6.04584 3.7422 6.33258 3.90744L13.2289 7.88778C14.4196 8.57304 14.4196 10.2935 13.2289 10.9787L6.33258 14.9591C6.04584 15.1243 5.73965 15.2021 5.44319 15.2021C4.51007 15.2021 3.65471 14.4536 3.65471 13.4136V5.45292C3.65471 4.40802 4.51007 3.66444 5.44319 3.66444ZM5.44319 0.00971837C2.43971 0.00971837 0 2.4543 0 5.45292V13.4136C0 16.4171 2.44457 18.8568 5.44319 18.8568C6.39089 18.8568 7.33374 18.6041 8.15994 18.1229L15.0563 14.1426C16.733 13.1755 17.7779 11.3675 17.7779 9.4284C17.7779 7.48926 16.733 5.6862 15.0563 4.7142L8.15994 0.733857C7.32888 0.252717 6.39089 0 5.44319 0V0.00971837Z" fill="#FFDA2A"/>
</svg>
