<svg width="22" height="23" viewBox="0 0 22 23" fill="none" xmlns="http://www.w3.org/2000/svg">
<path id="Vector" d="M6.53183 4.75963C6.88758 4.75963 7.25501 4.85294 7.5991 5.05123L15.8747 9.82764C17.3035 10.65 17.3035 12.7145 15.8747 13.5368L7.5991 18.3132C7.25501 18.5115 6.88758 18.6048 6.53183 18.6048C5.41209 18.6048 4.38566 17.7067 4.38566 16.4586V6.90581C4.38566 5.65193 5.41209 4.75963 6.53183 4.75963ZM6.53183 0.373967C2.92765 0.373967 0 3.30746 0 6.90581V16.4586C0 20.0628 2.93349 22.9905 6.53183 22.9905C7.66907 22.9905 8.80049 22.6872 9.79193 22.1098L18.0675 17.3334C20.0796 16.1729 21.3334 14.0034 21.3334 11.6764C21.3334 9.34941 20.0796 7.18574 18.0675 6.01934L9.79193 1.24293C8.79466 0.665565 7.66907 0.362305 6.53183 0.362305V0.373967Z" fill="#F9FAFA"/>
</svg>
