<svg width="94" height="85" viewBox="0 0 94 85" fill="none" xmlns="http://www.w3.org/2000/svg">
<g clip-path="url(#clip0_126_1003)">
<path fill-rule="evenodd" clip-rule="evenodd" d="M6.83407 64.4508H18.2245V82.5836H6.83407V64.4508ZM29.6373 45.9316H41.0277V82.5808H29.6373V45.9316ZM52.4517 52.4304H63.8337V82.5836H52.4517V52.4304ZM75.2549 36.1792H86.6453V82.5808H75.2549V36.1792ZM91.9205 82.5836H88.9525V35.0256C88.9525 34.3872 88.4345 33.872 87.7989 33.872H74.1013C73.4657 33.872 72.9477 34.3872 72.9477 35.0256V82.5808H66.1409V51.274C66.1409 50.6384 65.6229 50.1204 64.9873 50.1204H51.2981C50.6625 50.1204 50.1445 50.6384 50.1445 51.274V82.5808H43.3377V44.778C43.3377 44.1424 42.8197 43.6244 42.1841 43.6244H28.4865C27.8509 43.6244 27.3329 44.1424 27.3329 44.778V82.5808H20.5345V63.2944C20.5345 62.6588 20.0165 62.1408 19.3809 62.1408H5.68047C5.04487 62.1408 4.52687 62.6588 4.52687 63.2944V82.5808H1.55887C0.923273 82.5808 0.405273 83.0988 0.405273 83.7344C0.405273 84.37 0.923273 84.888 1.55887 84.888H91.9177C92.5533 84.888 93.0713 84.3728 93.0713 83.7344C93.0713 83.096 92.5533 82.5808 91.9177 82.5808L91.9205 82.5836ZM7.53407 47.3204C7.18967 47.7124 7.08607 48.1268 7.24287 48.5944C7.44727 49.216 8.06047 49.7676 8.70167 49.902C9.18047 50.0028 9.58087 49.86 9.93367 49.468L32.3757 24.3828C32.7453 23.9712 33.3557 23.8788 33.8289 24.1616L54.8821 36.7028L81.4625 10.5788C81.9105 10.1336 82.6385 10.1364 83.0865 10.5844L84.0917 11.5952L85.9201 3.65998L77.9849 5.48558L79.1777 6.67838C79.3961 6.89678 79.5137 7.19078 79.5137 7.49878C79.5137 7.80678 79.3877 8.10078 79.1693 8.31638L55.0305 32.0464C54.6525 32.4132 54.0813 32.4832 53.6333 32.2144L32.3841 19.5528L7.53407 47.3204ZM8.23127 52.1588C8.48327 52.212 8.73247 52.24 8.98447 52.24C9.98967 52.24 10.9305 51.8088 11.6529 51.008L33.4593 26.6284L54.4649 39.1388C54.9129 39.4076 55.4869 39.3376 55.8621 38.9708L82.2605 13.0204L83.9321 14.6948C84.2289 14.9944 84.6629 15.1036 85.0689 14.9888C85.4693 14.874 85.7745 14.5464 85.8697 14.1404L88.5773 2.38038C88.6641 1.99398 88.5465 1.58798 88.2721 1.30518C87.9893 1.02518 87.5805 0.90758 87.1969 0.99718L75.4369 3.69918C75.0281 3.79438 74.6977 4.10238 74.5801 4.50558C74.4709 4.90878 74.5801 5.34278 74.8797 5.63958L76.7165 7.48198L54.0449 29.77L32.7397 17.0804C32.2693 16.7976 31.6561 16.8928 31.2865 17.3044L5.81487 45.7832C4.91887 46.7828 4.64447 48.0708 5.05327 49.314C5.50967 50.714 6.78927 51.8564 8.23127 52.1588Z" fill="#C8DCA2"/>
</g>
<defs>
<clipPath id="clip0_126_1003">
<rect width="92.6688" height="83.9216" fill="white" transform="translate(0.405273 0.969238)"/>
</clipPath>
</defs>
</svg>
