<svg width="118" height="98" viewBox="0 0 118 98" fill="none" xmlns="http://www.w3.org/2000/svg">
<path d="M112.698 96.3825V87.6125V24.1325H75.6626V73.3725" stroke="#ECF3DD" stroke-width="2" stroke-linecap="round" stroke-linejoin="round"/>
<path d="M42.3379 96.3825V1.54749H79.3729V17.5675" stroke="#ECF3DD" stroke-width="2" stroke-linecap="round" stroke-linejoin="round"/>
<path d="M91.7875 37.7125H82.3325V46.1025" stroke="#ECF3DD" stroke-width="2" stroke-linecap="round" stroke-linejoin="round"/>
<path d="M107.433 37.7125H97.9775V46.1025" stroke="#ECF3DD" stroke-width="2" stroke-linecap="round" stroke-linejoin="round"/>
<path d="M91.7875 56.0625H82.3325V64.4525" stroke="#ECF3DD" stroke-width="2" stroke-linecap="round" stroke-linejoin="round"/>
<path d="M107.433 56.0625H97.9775V64.4525" stroke="#ECF3DD" stroke-width="2" stroke-linecap="round" stroke-linejoin="round"/>
<path d="M5.30273 96.3825V87.6125V24.1325H42.3377V73.3725" stroke="#ECF3DD" stroke-width="2" stroke-linecap="round" stroke-linejoin="round"/>
<path d="M21.0776 37.7125H11.6226V46.1025" stroke="#ECF3DD" stroke-width="2" stroke-linecap="round" stroke-linejoin="round"/>
<path d="M36.7275 37.7125H27.2725V46.1025" stroke="#ECF3DD" stroke-width="2" stroke-linecap="round" stroke-linejoin="round"/>
<path d="M21.0776 56.0625H11.6226V64.4525" stroke="#ECF3DD" stroke-width="2" stroke-linecap="round" stroke-linejoin="round"/>
<path d="M36.7275 56.0625H27.2725V64.4525" stroke="#ECF3DD" stroke-width="2" stroke-linecap="round" stroke-linejoin="round"/>
<path d="M65.5829 13.3275H56.1279V21.7175" stroke="#ECF3DD" stroke-width="2" stroke-linecap="round" stroke-linejoin="round"/>
<path d="M65.5829 32.4025H56.1279V40.7925" stroke="#ECF3DD" stroke-width="2" stroke-linecap="round" stroke-linejoin="round"/>
<path d="M65.5829 50.7225H56.1279V59.1125" stroke="#ECF3DD" stroke-width="2" stroke-linecap="round" stroke-linejoin="round"/>
<path d="M65.5829 69.7925H56.1279V78.1875" stroke="#ECF3DD" stroke-width="2" stroke-linecap="round" stroke-linejoin="round"/>
<path d="M106.388 96.4525C106.388 96.4525 105.958 83.4625 92.1627 87.3425C92.1627 87.3425 89.7127 78.0375 79.4377 78.0375H79.2327C68.9577 78.0375 66.5077 87.3425 66.5077 87.3425C52.7177 83.4675 52.2827 96.4525 52.2827 96.4525" stroke="#ECF3DD" stroke-width="2" stroke-linecap="round" stroke-linejoin="round"/>
<path d="M1.57764 96.4525H116.423" stroke="#ECF3DD" stroke-width="2" stroke-linecap="round" stroke-linejoin="round"/>
</svg>
