<svg width="35" height="35" viewBox="0 0 35 35" fill="none" xmlns="http://www.w3.org/2000/svg">
<path fill-rule="evenodd" clip-rule="evenodd" d="M7.75505 0H26.645C30.9279 0 34.4 3.47205 34.4 7.75505V26.645C34.4 30.9279 30.9279 34.4 26.645 34.4H7.75505C3.47205 34.4 0 30.9279 0 26.645V7.75505C0 3.47205 3.47205 0 7.75505 0ZM17.1968 6.27175C23.521 6.27175 28.666 10.447 28.666 15.5791C28.666 17.6302 27.8694 19.4835 26.2074 21.3056C23.8016 24.0759 18.4212 27.4503 17.1968 27.9652C16.0052 28.4664 16.1443 27.6806 16.1992 27.3705L16.2035 27.346C16.2325 27.174 16.3669 26.3646 16.3669 26.3646C16.4056 26.0722 16.4454 25.6174 16.3293 25.3272C16.2013 25.0079 15.6929 24.8424 15.3188 24.7617C9.81261 24.034 5.72761 20.1801 5.72761 15.5791C5.72761 10.447 10.8726 6.27175 17.1968 6.27175ZM21.6247 18.5429H24.8497C24.8786 18.5429 24.9072 18.5371 24.9338 18.5258C24.9604 18.5145 24.9844 18.498 25.0045 18.4773C25.0245 18.4565 25.0402 18.4319 25.0506 18.4049C25.0609 18.378 25.0657 18.3492 25.0647 18.3203V17.5076C25.0647 17.4506 25.0421 17.3959 25.0017 17.3556C24.9614 17.3153 24.9067 17.2926 24.8497 17.2926H22.6599V16.4477H24.8497C24.9067 16.4477 24.9614 16.425 25.0017 16.3847C25.0421 16.3444 25.0647 16.2897 25.0647 16.2327V15.4114C25.0647 15.3544 25.0421 15.2997 25.0017 15.2594C24.9614 15.219 24.9067 15.1964 24.8497 15.1964H22.6599V14.3525H24.8497C24.9067 14.3525 24.9614 14.3299 25.0017 14.2895C25.0421 14.2492 25.0647 14.1945 25.0647 14.1375V13.3237C25.0647 13.2667 25.0421 13.212 25.0017 13.1717C24.9614 13.1314 24.9067 13.1087 24.8497 13.1087H21.6247C21.5677 13.1087 21.513 13.1314 21.4727 13.1717C21.4324 13.212 21.4097 13.2667 21.4097 13.3237V18.3279C21.4097 18.3849 21.4324 18.4396 21.4727 18.4799C21.513 18.5202 21.5677 18.5429 21.6247 18.5429ZM12.9312 18.5428C12.9882 18.5428 13.0429 18.5202 13.0832 18.4799C13.1235 18.4395 13.1462 18.3849 13.1462 18.3278V17.5151C13.1462 17.4581 13.1235 17.4034 13.0832 17.3631C13.0429 17.3228 12.9882 17.3001 12.9312 17.3001H10.7414V13.3226C10.7414 13.2656 10.7188 13.2109 10.6784 13.1706C10.6381 13.1303 10.5834 13.1076 10.5264 13.1076H9.70941C9.65239 13.1076 9.5977 13.1303 9.55738 13.1706C9.51707 13.2109 9.49441 13.2656 9.49441 13.3226V18.3246C9.49441 18.3816 9.51707 18.4363 9.55738 18.4766C9.5977 18.517 9.65239 18.5396 9.70941 18.5396H12.9344L12.9312 18.5428ZM14.0578 13.0988H14.8705C14.9916 13.0988 15.0898 13.197 15.0898 13.3181V18.3233C15.0898 18.4444 14.9916 18.5426 14.8705 18.5426H14.0578C13.9367 18.5426 13.8385 18.4444 13.8385 18.3233V13.3181C13.8385 13.197 13.9367 13.0988 14.0578 13.0988ZM20.4078 13.0988H19.5951C19.5381 13.0988 19.4834 13.1215 19.4431 13.1618C19.4028 13.2021 19.3801 13.2568 19.3801 13.3138V16.2873L17.0904 13.1945C17.0851 13.1863 17.079 13.1787 17.0721 13.1719L17.0592 13.159L17.0474 13.1493H17.0409L17.0291 13.1407H17.0226L17.0108 13.1343H17.0033H16.9915H16.9839H16.971H16.9624H16.9495H16.9409H16.9291H16.1003C16.0433 13.1343 15.9886 13.1569 15.9483 13.1973C15.9079 13.2376 15.8853 13.2923 15.8853 13.3493V18.3545C15.8853 18.4115 15.9079 18.4662 15.9483 18.5065C15.9886 18.5468 16.0433 18.5695 16.1003 18.5695H16.9141C16.9711 18.5695 17.0258 18.5468 17.0661 18.5065C17.1064 18.4662 17.1291 18.4115 17.1291 18.3545V15.352L19.422 18.448C19.4371 18.4699 19.456 18.4889 19.4779 18.5039L19.4908 18.5125H19.4973L19.508 18.5179H19.5188H19.5263H19.5414C19.5604 18.5226 19.5798 18.5251 19.5994 18.5254H20.4078C20.4648 18.5254 20.5195 18.5028 20.5598 18.4624C20.6002 18.4221 20.6228 18.3674 20.6228 18.3104V13.3181C20.6234 13.2895 20.6182 13.2611 20.6077 13.2345C20.5972 13.2079 20.5814 13.1837 20.5614 13.1633C20.5414 13.1429 20.5175 13.1267 20.4911 13.1156C20.4647 13.1045 20.4364 13.0988 20.4078 13.0988Z" fill="#DEEAC7"/>
</svg>
