<svg width="111" height="102" viewBox="0 0 111 102" fill="none" xmlns="http://www.w3.org/2000/svg">
<g clip-path="url(#clip0_126_1072)">
<path d="M66.2145 27.3808C72.2265 21.3688 72.2265 11.6215 66.2145 5.60955C60.2025 -0.402419 50.4552 -0.40242 44.4432 5.60955C38.4313 11.6215 38.4313 21.3688 44.4432 27.3808C50.4552 33.3928 60.2025 33.3928 66.2145 27.3808Z" stroke="#ECF3DD" stroke-width="2.15686" stroke-linecap="round" stroke-linejoin="round"/>
<path d="M28.1846 64.6233C28.1846 49.6331 40.3439 37.4738 55.3395 37.4738C62.84 37.4738 69.6287 40.5204 74.5356 45.4272C79.4478 50.3395 82.489 57.1282 82.489 64.6233" stroke="#ECF3DD" stroke-width="2.15686" stroke-linecap="round" stroke-linejoin="round"/>
<path d="M56.8162 66.6238L60.1162 76.7772C60.3265 77.4189 60.925 77.8557 61.599 77.8557H72.2755C73.7853 77.8557 74.4162 79.7914 73.1922 80.6811L64.5539 86.9576C64.0093 87.3566 63.7775 88.0576 63.9878 88.7047L67.2878 98.8581C67.7569 100.298 66.1069 101.495 64.8883 100.605L56.25 94.3287C55.7054 93.9297 54.9613 93.9297 54.4167 94.3287L45.7784 100.605C44.5544 101.495 42.9098 100.298 43.3789 98.8581L46.6789 88.7047C46.8892 88.063 46.6574 87.3566 46.1128 86.9576L37.4745 80.6811C36.2505 79.7914 36.8814 77.8557 38.3912 77.8557H49.0677C49.7417 77.8557 50.3456 77.4189 50.5505 76.7772L53.8505 66.6238C54.3196 65.1841 56.3525 65.1841 56.8216 66.6238H56.8162Z" stroke="#ECF3DD" stroke-width="2.15686" stroke-linecap="round" stroke-linejoin="round"/>
<path d="M95.7693 66.7693L98.3845 74.809C98.5517 75.3159 99.0262 75.661 99.56 75.661H108.015C109.212 75.661 109.708 77.1924 108.743 77.8987L101.9 82.8703C101.469 83.183 101.286 83.7438 101.453 84.2507L104.068 92.2904C104.44 93.4281 103.135 94.3772 102.164 93.6708L95.3218 88.6992C94.8904 88.3865 94.3027 88.3865 93.8659 88.6992L87.0233 93.6708C86.0527 94.3772 84.7532 93.4281 85.1198 92.2904L87.735 84.2507C87.9022 83.7438 87.7188 83.183 87.2875 82.8703L80.4448 77.8987C79.4742 77.1924 79.9757 75.661 81.1728 75.661H89.6277C90.1615 75.661 90.636 75.3159 90.8032 74.809L93.4184 66.7693C93.7904 65.6316 95.4027 65.6316 95.7693 66.7693Z" stroke="#ECF3DD" stroke-width="2.15686" stroke-linecap="round" stroke-linejoin="round"/>
<path d="M17.2488 66.7693L19.864 74.809C20.0312 75.3159 20.5057 75.661 21.0395 75.661H29.4944C30.6915 75.661 31.1876 77.1924 30.2224 77.8987L23.3797 82.8703C22.9483 83.183 22.765 83.7438 22.9322 84.2507L25.5474 92.2904C25.9194 93.4281 24.6145 94.3772 23.6439 93.6708L16.8013 88.6992C16.3699 88.3865 15.7822 88.3865 15.3454 88.6992L8.50275 93.6708C7.53216 94.3772 6.23265 93.4281 6.59932 92.2904L9.21451 84.2507C9.38167 83.7438 9.19834 83.183 8.76696 82.8703L1.92432 77.8987C0.953728 77.1924 1.4552 75.661 2.65226 75.661H11.1072C11.641 75.661 12.1155 75.3159 12.2826 74.809L14.8978 66.7693C15.2699 65.6316 16.8822 65.6316 17.2488 66.7693Z" stroke="#ECF3DD" stroke-width="2.15686" stroke-linecap="round" stroke-linejoin="round"/>
</g>
<defs>
<clipPath id="clip0_126_1072">
<rect width="110" height="101.96" fill="white" transform="translate(0.333984 0.0198364)"/>
</clipPath>
</defs>
</svg>
