<svg width="110" height="102" viewBox="0 0 110 102" fill="none" xmlns="http://www.w3.org/2000/svg">
<g clip-path="url(#clip0_305_1424)">
<path d="M77.0942 47.0709L54.5878 55.9535L0.975586 32.5203L54.5878 12.9944L109.024 34.4715L86.3864 43.4077" stroke="white" stroke-opacity="0.7" stroke-width="2.5" stroke-linecap="round" stroke-linejoin="round"/>
<path d="M16.3555 47.7295V71.3431C16.3555 77.7038 21.5113 82.8548 27.8672 82.8548H70.1336" stroke="white" stroke-opacity="0.7" stroke-width="2.5" stroke-linecap="round" stroke-linejoin="round"/>
<path d="M93.6202 47.7295V71.3431C93.6202 72.8845 93.3178 74.3576 92.7666 75.699" stroke="white" stroke-opacity="0.7" stroke-width="2.5" stroke-linecap="round" stroke-linejoin="round"/>
<path d="M54.5879 32.3057L82.2891 45.0222V73.0941" stroke="white" stroke-opacity="0.7" stroke-width="2.5" stroke-linecap="round" stroke-linejoin="round"/>
<path d="M82.2886 89.0056C85.7099 89.0056 88.4834 85.4437 88.4834 81.0499C88.4834 76.656 85.7099 73.0941 82.2886 73.0941C78.8673 73.0941 76.0938 76.656 76.0938 81.0499C76.0938 85.4437 78.8673 89.0056 82.2886 89.0056Z" stroke="white" stroke-opacity="0.7" stroke-width="2.5" stroke-linecap="round" stroke-linejoin="round"/>
</g>
<defs>
<clipPath id="clip0_305_1424">
<rect width="110" height="77.9624" fill="white" transform="translate(0 12.0188)"/>
</clipPath>
</defs>
</svg>
