<svg width="94" height="90" viewBox="0 0 94 90" fill="none" xmlns="http://www.w3.org/2000/svg">
<g clip-path="url(#clip0_126_990)">
<path fill-rule="evenodd" clip-rule="evenodd" d="M58.6689 44.7634C63.4513 44.7634 67.3433 48.6526 67.3433 53.4378C67.3433 58.223 63.4513 62.1122 58.6689 62.1122C53.8865 62.1122 49.9945 58.2202 49.9945 53.4378C49.9945 48.6554 53.8865 44.7634 58.6689 44.7634ZM58.6689 64.4194C64.7253 64.4194 69.6505 59.4942 69.6505 53.4378C69.6505 47.3814 64.7253 42.4562 58.6689 42.4562C52.6125 42.4562 47.6873 47.3814 47.6873 53.4378C47.6873 59.4942 52.6125 64.4194 58.6689 64.4194ZM93.2489 49.5962C93.2489 47.7034 91.7061 46.1606 89.8105 46.1606H84.2693C83.7653 46.1606 83.3509 45.8638 83.1941 45.3822C82.7909 44.1558 82.2897 42.949 81.7073 41.7954C81.4805 41.3446 81.5589 40.8434 81.9173 40.485L85.8373 36.565C86.4869 35.9154 86.8425 35.053 86.8425 34.1346C86.8425 33.2162 86.4841 32.351 85.8373 31.7042L80.4025 26.2694C79.7529 25.6198 78.8905 25.2642 77.9721 25.2642C77.0537 25.2642 76.1885 25.6226 75.5417 26.2694L71.6217 30.1894C71.2633 30.5478 70.7621 30.6262 70.3113 30.3994C69.1577 29.8142 67.9537 29.3158 66.7273 28.9126C66.2485 28.7558 65.9489 28.3442 65.9489 27.8374V22.2962C65.9489 20.4006 64.4061 18.8578 62.5105 18.8578H54.8245C52.9289 18.8578 51.3861 20.4006 51.3861 22.2962V27.8374C51.3861 28.3414 51.0893 28.753 50.6077 28.9098C49.5381 29.2626 48.4797 29.6882 47.4661 30.1782C46.8921 30.4554 46.6513 31.1442 46.9285 31.7182C47.2057 32.2922 47.8945 32.533 48.4685 32.2558C49.3925 31.8078 50.3557 31.4214 51.3273 31.0994C52.7637 30.629 53.6905 29.3466 53.6905 27.8346V22.2934C53.6905 21.6718 54.1973 21.165 54.8217 21.165H62.5077C63.1321 21.165 63.6389 21.6718 63.6389 22.2934V27.8346C63.6389 29.3466 64.5657 30.629 66.0021 31.1022C67.1165 31.4662 68.2141 31.9226 69.2641 32.4546C70.6137 33.1406 72.1789 32.8886 73.2485 31.8218L77.1685 27.899C77.3813 27.689 77.6641 27.5714 77.9665 27.5714C78.2689 27.5714 78.5517 27.689 78.7645 27.899L84.1993 33.3338C84.4121 33.5438 84.5297 33.8294 84.5297 34.1346C84.5297 34.4398 84.4121 34.7198 84.1993 34.9326L80.2793 38.8554C79.2097 39.925 78.9605 41.4902 79.6437 42.8398C80.1757 43.8898 80.6293 44.9874 80.9961 46.1018C81.4665 47.5382 82.7489 48.465 84.2609 48.465H89.8021C90.4237 48.465 90.9333 48.9718 90.9333 49.5934V57.2794C90.9333 57.9038 90.4265 58.4106 89.8021 58.4106H84.2581C82.7461 58.4106 81.4637 59.3374 80.9933 60.7738C80.6265 61.8882 80.1729 62.983 79.6409 64.0358C78.9577 65.3854 79.2069 66.9506 80.2765 68.0174L84.1965 71.9402C84.4093 72.1502 84.5269 72.4358 84.5269 72.741C84.5269 73.0462 84.4093 73.3262 84.1965 73.539L78.7617 78.9738C78.5489 79.1866 78.2661 79.3014 77.9637 79.3014C77.6613 79.3014 77.3757 79.1866 77.1657 78.9738L73.2457 75.051C72.1761 73.9814 70.6109 73.7322 69.2613 74.4182C68.2113 74.9474 67.1137 75.4038 65.9993 75.7706C64.5629 76.241 63.6361 77.5234 63.6361 79.0354V84.5794C63.6361 85.2038 63.1293 85.7106 62.5049 85.7106H54.8189C54.1945 85.7106 53.6877 85.2038 53.6877 84.5794V79.0354C53.6877 77.5234 52.7609 76.241 51.3245 75.7706C50.2101 75.4038 49.1125 74.9474 48.0625 74.4182C46.7129 73.735 45.1477 73.9842 44.0781 75.0538L40.1581 78.9738C39.9313 79.1978 39.6765 79.2734 39.5001 79.2958C38.8673 79.3742 38.4193 79.951 38.4977 80.581C38.5761 81.2138 39.1529 81.6618 39.7857 81.5834C40.5389 81.491 41.2529 81.1438 41.7877 80.6062L45.7105 76.6834C46.0689 76.325 46.5701 76.2466 47.0209 76.4734C48.1745 77.0586 49.3813 77.557 50.6049 77.963C51.0837 78.1198 51.3833 78.5314 51.3833 79.0354V84.5794C51.3833 86.475 52.9261 88.0178 54.8217 88.0178H62.5077C64.4033 88.0178 65.9461 86.475 65.9461 84.5794V79.0354C65.9461 78.5314 66.2429 78.1198 66.7245 77.963C67.9509 77.5626 69.1577 77.0586 70.3085 76.4734C70.7593 76.2438 71.2605 76.325 71.6189 76.6834L75.5389 80.6034C76.1857 81.253 77.0509 81.6086 77.9693 81.6086C78.8877 81.6086 79.7529 81.253 80.3997 80.6034L85.8345 75.1714C86.4841 74.5218 86.8397 73.6594 86.8397 72.741C86.8397 71.8226 86.4813 70.9602 85.8345 70.3106L81.9145 66.3878C81.5561 66.0294 81.4777 65.5282 81.7045 65.0774C82.2897 63.921 82.7909 62.717 83.1913 61.4934C83.3481 61.0146 83.7597 60.7178 84.2637 60.7178H89.8077C91.7033 60.7178 93.2461 59.175 93.2461 57.2794V49.5934L93.2489 49.5962ZM21.9665 3.08259C26.1749 3.08259 29.5993 6.50699 29.5993 10.7154C29.5993 14.9238 26.1749 18.3482 21.9665 18.3482C17.7581 18.3482 14.3337 14.9238 14.3337 10.7154C14.3337 6.50699 17.7581 3.08259 21.9665 3.08259ZM21.9665 20.6554C27.4461 20.6554 31.9065 16.1978 31.9065 10.7154C31.9065 5.23299 27.4489 0.775391 21.9665 0.775391C16.4841 0.775391 12.0265 5.23299 12.0265 10.7154C12.0265 16.1978 16.4841 20.6554 21.9665 20.6554ZM35.0313 53.8018V34.9662C35.0313 34.3306 34.5133 33.8126 33.8777 33.8126C33.2421 33.8126 32.7241 34.3306 32.7241 34.9662V82.1854C32.7241 84.8342 30.5709 86.9874 27.9221 86.9874C25.2733 86.9874 23.1201 84.8342 23.1201 82.1854V52.679C23.1201 52.0434 22.6049 51.5254 21.9665 51.5254C21.3281 51.5254 20.8129 52.0434 20.8129 52.679V82.1854C20.8129 84.8342 18.6597 86.9874 16.0109 86.9874C13.3621 86.9874 11.2089 84.8342 11.2089 82.1854V34.9662C11.2089 34.3306 10.6937 33.8126 10.0553 33.8126C9.41688 33.8126 8.90168 34.3306 8.90168 34.9662V53.8018C8.90168 55.4594 7.55208 56.8062 5.89448 56.8062C4.23688 56.8062 2.88728 55.4594 2.88728 53.8018V31.231C2.88728 27.4678 5.95048 24.4046 9.71368 24.4046H34.2137C37.9797 24.4046 41.0429 27.4678 41.0429 31.231V53.8018C41.0429 55.4594 39.6933 56.8062 38.0357 56.8062C36.3781 56.8062 35.0285 55.4594 35.0285 53.8018H35.0313ZM43.3529 53.8018C43.3529 56.7306 40.9701 59.1134 38.0385 59.1134C36.9241 59.1134 35.8881 58.769 35.0313 58.1782V82.1854C35.0313 86.1054 31.8421 89.2946 27.9221 89.2946C25.4329 89.2946 23.2377 88.0094 21.9665 86.0662C20.6953 88.0094 18.5001 89.2946 16.0109 89.2946C12.0909 89.2946 8.90168 86.1054 8.90168 82.1854V58.1782C8.04488 58.7662 7.01168 59.1134 5.89448 59.1134C2.96568 59.1134 0.580078 56.7306 0.580078 53.8018V31.231C0.580078 26.1938 4.67928 22.0974 9.71368 22.0974H34.2137C39.2509 22.0974 43.3473 26.1938 43.3473 31.231V53.8018H43.3529Z" fill="#7FADDC"/>
</g>
<defs>
<clipPath id="clip0_126_990">
<rect width="92.666" height="88.5192" fill="white" transform="translate(0.583008 0.775391)"/>
</clipPath>
</defs>
</svg>
