<svg width="93" height="107" viewBox="0 0 93 107" fill="none" xmlns="http://www.w3.org/2000/svg">
<g clip-path="url(#clip0_126_978)">
<path fill-rule="evenodd" clip-rule="evenodd" d="M27.0332 15.1488C27.2764 15.5712 27.7212 15.808 28.1756 15.808C28.3996 15.808 28.6268 15.7504 28.8348 15.632C29.4652 15.2672 29.6796 14.4608 29.318 13.8304L25.3084 6.88959C24.9468 6.25919 24.1404 6.04479 23.51 6.40639C22.8796 6.77119 22.662 7.57759 23.0268 8.20799L27.0332 15.1488ZM15.4108 26.7712L8.46995 22.7648C7.83635 22.4 7.03315 22.6176 6.66835 23.248C6.30355 23.8784 6.52115 24.6848 7.15155 25.0496L14.0924 29.0592C14.3004 29.1808 14.5276 29.2352 14.7516 29.2352C15.206 29.2352 15.6508 28.9984 15.894 28.576C16.2588 27.9456 16.0412 27.1392 15.4108 26.7744V26.7712ZM11.1548 46.2496C11.1548 45.52 10.5628 44.9312 9.83635 44.9312H1.82035C1.09395 44.9312 0.501953 45.52 0.501953 46.2496C0.501953 46.9792 1.09395 47.568 1.82035 47.568H9.83955C10.566 47.568 11.158 46.9792 11.158 46.2496H11.1548ZM14.0924 63.4464L7.15155 67.4528C6.52115 67.8176 6.30355 68.6208 6.66835 69.2544C6.91155 69.6768 7.35635 69.9136 7.81075 69.9136C8.03475 69.9136 8.26195 69.856 8.46995 69.7376L15.4108 65.728C16.0412 65.3632 16.2556 64.5568 15.894 63.9264C15.5292 63.296 14.7228 63.0816 14.0924 63.4432V63.4464ZM85.8748 67.4528L78.934 63.4464C78.3036 63.0816 77.4972 63.2992 77.1324 63.9296C76.7708 64.56 76.9852 65.3664 77.6156 65.7312L84.5532 69.7408C84.758 69.8624 84.9948 69.9168 85.2156 69.9168C85.6636 69.9168 86.1116 69.68 86.3548 69.2576C86.7228 68.6272 86.4988 67.8208 85.8716 67.456L85.8748 67.4528ZM91.2028 44.9312H83.1868C82.4604 44.9312 81.8684 45.52 81.8684 46.2496C81.8684 46.9792 82.4604 47.568 83.1868 47.568H91.2028C91.9292 47.568 92.5212 46.9792 92.5212 46.2496C92.5212 45.52 91.9292 44.9312 91.2028 44.9312ZM78.2748 29.2288C78.4988 29.2288 78.726 29.1712 78.934 29.0528L85.8748 25.0432C86.502 24.6784 86.726 23.872 86.358 23.2416C85.99 22.6112 85.1932 22.3968 84.5564 22.7584L77.6188 26.7648C76.9884 27.1296 76.774 27.936 77.1356 28.5664C77.3788 28.9888 77.8236 29.2256 78.278 29.2256L78.2748 29.2288ZM64.1916 15.6288C64.3996 15.7472 64.6268 15.8048 64.8508 15.8048C65.3052 15.8048 65.75 15.568 65.9932 15.1456L70.0028 8.20479C70.3676 7.57439 70.15 6.76799 69.5196 6.40319C68.8892 6.03839 68.0828 6.25599 67.7212 6.88639L63.7116 13.8272C63.35 14.4576 63.5644 15.264 64.1948 15.6288H64.1916ZM46.5116 10.8928C47.238 10.8928 47.83 10.304 47.83 9.57439V1.55839C47.83 0.83199 47.238 0.23999 46.5116 0.23999C45.7852 0.23999 45.1932 0.83199 45.1932 1.55839V9.57439C45.1932 10.304 45.7852 10.8928 46.5116 10.8928ZM74.3036 46.7264V46.6944C74.3036 31.3728 61.8364 18.9056 46.5148 18.9056C31.1932 18.9056 18.726 31.3728 18.726 46.6944V46.7264C18.4604 58.0992 23.5836 64.0768 28.5372 69.856C31.8812 73.7568 35.0524 77.456 36.1116 82.4512H56.918C57.9772 77.456 61.1484 73.7568 64.4924 69.856C69.446 64.0768 74.5692 58.0992 74.3036 46.7264ZM56.8156 97.5648V94.1568H36.3196V97.5744L40.7228 101.965C41.6252 102.861 43.91 103.482 46.4188 103.504H46.5724C49.0908 103.504 51.3308 102.899 52.3036 101.952L56.8124 97.5616L56.8156 97.5648ZM36.3228 91.52H56.8188V85.088H36.3228V91.52ZM76.9404 46.6816C77.2252 59.0528 71.5228 65.7056 66.4956 71.5744C63.062 75.5808 60.0924 79.0496 59.3596 83.7728H59.4556V98.1216C59.4556 98.4768 59.3116 98.8192 59.0588 99.0656L54.15 103.843C52.5628 105.386 49.5292 106.157 46.4988 106.16C43.4588 106.16 40.4284 105.386 38.87 103.834L34.0764 99.056C33.8268 98.8096 33.6892 98.4736 33.6892 98.1216V83.872C32.9852 79.0944 29.9932 75.6064 26.5372 71.5712C21.5068 65.7024 15.8076 59.0528 16.0924 46.6784C16.102 29.9072 29.7468 16.2688 46.518 16.2688C63.2892 16.2688 76.934 29.9104 76.9436 46.6784L76.9404 46.6816ZM60.9948 38.4704C61.51 38.9856 61.51 39.8208 60.9948 40.336L43.6156 57.7152C43.3692 57.9616 43.0332 58.1024 42.6844 58.1024C42.3356 58.1024 41.9996 57.9648 41.7532 57.7152L31.8428 47.8048C31.3276 47.2896 31.3276 46.4544 31.8428 45.9392C32.358 45.424 33.1932 45.424 33.7084 45.9392L42.6844 54.9184L59.1324 38.4704C59.6476 37.9552 60.4828 37.9552 60.9948 38.4704Z" fill="#C8DCA2"/>
</g>
<defs>
<clipPath id="clip0_126_978">
<rect width="92.0192" height="105.92" fill="white" transform="translate(0.501953 0.23999)"/>
</clipPath>
</defs>
</svg>
