<svg width="32" height="32" viewBox="0 0 32 32" fill="none" xmlns="http://www.w3.org/2000/svg">
<g clip-path="url(#clip0_166_1626)">
<mask id="mask0_166_1626" style="mask-type:luminance" maskUnits="userSpaceOnUse" x="-7" y="-7" width="46" height="46">
<path d="M-6.39999 -6.40009H38.4V38.3999H-6.39999V-6.40009Z" fill="white"/>
</mask>
<g mask="url(#mask0_166_1626)">
<path fill-rule="evenodd" clip-rule="evenodd" d="M22.2667 20.8893L22.2668 20.8893L22.7299 18.3669L23.1646 16L23.1645 16L17.9384 16V14.2708C17.9384 13.8116 17.9704 13.4026 18.0378 13.0404C18.1126 12.6385 18.231 12.2944 18.3975 12.0034C18.8286 11.25 19.5824 10.853 20.7385 10.7331C20.9971 10.7062 21.2758 10.6932 21.5756 10.6932C21.5756 10.6932 21.5756 10.6932 21.5756 10.6932C21.8812 10.6932 22.1644 10.696 22.419 10.7016C22.8433 10.7109 23.188 10.728 23.424 10.7528V6.32064C23.3611 6.30317 23.2903 6.2857 23.2126 6.26836C22.9589 6.21173 22.6329 6.15654 22.2763 6.10749C21.5001 6.00072 20.5793 5.92307 19.9458 5.92307C14.5993 5.92307 12.1347 8.4473 12.1347 13.8932V16L8.83545 16L8.83542 16V20.8893H12.1347V31.5288C5.16574 29.7998 0 23.5037 0 16C0 7.16345 7.16346 -3.8147e-06 16 -3.8147e-06C24.8365 -3.8147e-06 32 7.16345 32 16C32 24.1803 25.8607 30.9259 17.9384 31.8828V20.8893H22.2667Z" fill="#DEEAC7"/>
</g>
</g>
<defs>
<clipPath id="clip0_166_1626">
<rect width="32" height="32" fill="white"/>
</clipPath>
</defs>
</svg>
