<svg width="139" height="88" viewBox="0 0 139 88" fill="none" xmlns="http://www.w3.org/2000/svg">
<g clip-path="url(#clip0_126_1019)">
<path d="M26.8568 1.83197L40.0748 9.46397L14.7668 53.3L1.54883 45.668" stroke="#ECF3DD" stroke-width="2.4" stroke-linecap="round" stroke-linejoin="round"/>
<path d="M112.477 1.49597L99.2588 9.12797L124.567 52.964L137.785 45.332" stroke="#ECF3DD" stroke-width="2.4" stroke-linecap="round" stroke-linejoin="round"/>
<path d="M103.345 16.202C103.345 16.202 97.981 19.172 91.567 17.486C85.153 15.8 67.945 14.474 57.823 18.002C49.639 22.628 42.217 37.31 47.365 39.926C52.513 42.542 64.999 27.188 68.875 28.454C72.481 29.63 101.083 47.24 108.253 53.78C109.021 54.482 110.179 54.53 111.007 53.894C113.881 51.668 119.953 47.042 121.009 46.79" stroke="#ECF3DD" stroke-width="2.4" stroke-linecap="round" stroke-linejoin="round"/>
<path d="M64.5728 82.658C64.5728 82.658 75.9608 87.236 80.0108 85.946C84.0608 84.656 85.8308 78.986 85.8308 78.986L70.7708 72.152" stroke="#ECF3DD" stroke-width="2.4" stroke-linecap="round" stroke-linejoin="round"/>
<path d="M85.8307 78.9859C92.6647 83.4139 95.2867 73.136 95.2867 73.136L76.6567 61.838" stroke="#ECF3DD" stroke-width="2.4" stroke-linecap="round" stroke-linejoin="round"/>
<path d="M92.5146 71.456C103.171 75.614 103.171 64.562 103.171 64.562L82.4946 52.022" stroke="#ECF3DD" stroke-width="2.4" stroke-linecap="round" stroke-linejoin="round"/>
<path d="M101.983 63.8419C106.387 66.5119 108.793 65.2399 110.113 63.0379C112.009 59.8699 111.007 55.7539 108.013 53.5999L92.833 42.6979" stroke="#ECF3DD" stroke-width="2.4" stroke-linecap="round" stroke-linejoin="round"/>
<path d="M19.519 45.074L27.625 54.344" stroke="#ECF3DD" stroke-width="2.4" stroke-linecap="round" stroke-linejoin="round"/>
<path d="M36.4326 15.782C36.4326 15.782 44.4546 21.446 53.0946 21.83" stroke="#ECF3DD" stroke-width="2.4" stroke-linecap="round" stroke-linejoin="round"/>
<path d="M26.9728 65.6028L26.0754 64.8997C24.3941 63.5823 24.0986 61.1479 25.416 59.4666L30.841 52.5428C32.1584 50.8614 34.5928 50.566 36.2742 51.8834L37.1715 52.5865C38.8529 53.9039 39.1483 56.3383 37.8309 58.0196L32.4059 64.9434C31.0885 66.6248 28.6541 66.9202 26.9728 65.6028Z" stroke="#ECF3DD" stroke-width="2.4" stroke-linecap="round" stroke-linejoin="round"/>
<path d="M54.8681 84.7119L55.9213 85.5371C57.8959 87.0842 60.7508 86.7378 62.2979 84.7632L66.8977 78.8926C68.4449 76.9181 68.0984 74.0632 66.1238 72.5161L65.0706 71.6908C63.0961 70.1437 60.2412 70.4902 58.694 72.4647L54.0942 78.3353C52.5471 80.3099 52.8936 83.1648 54.8681 84.7119Z" stroke="#ECF3DD" stroke-width="2.4" stroke-linecap="round" stroke-linejoin="round"/>
<path d="M33.8787 72.37L35.1255 73.3469C37.46 75.1761 40.8354 74.7664 42.6645 72.4319L51.2536 61.4701C53.0827 59.1356 52.6731 55.7602 50.3386 53.9311L49.0917 52.9541C46.7572 51.125 43.3819 51.5346 41.5527 53.8691L32.9637 64.831C31.1345 67.1655 31.5442 70.5408 33.8787 72.37Z" stroke="#ECF3DD" stroke-width="2.4" stroke-linecap="round" stroke-linejoin="round"/>
<path d="M44.6868 79.1695L45.7447 79.9984C47.7219 81.5476 50.5806 81.2007 52.1297 79.2235L59.4051 69.9383C60.9542 67.9611 60.6073 65.1025 58.6301 63.5533L57.5722 62.7244C55.595 61.1752 52.7364 61.5221 51.1872 63.4993L43.9119 72.7845C42.3627 74.7617 42.7097 77.6203 44.6868 79.1695Z" stroke="#ECF3DD" stroke-width="2.4" stroke-linecap="round" stroke-linejoin="round"/>
</g>
<defs>
<clipPath id="clip0_126_1019">
<rect width="138.636" height="87.408" fill="white" transform="translate(0.348633 0.296021)"/>
</clipPath>
</defs>
</svg>
