<svg width="50" height="50" viewBox="0 0 50 50" fill="none" xmlns="http://www.w3.org/2000/svg">
<path d="M14.3728 3.9C14.3728 3.40125 13.9715 3 13.4728 3C12.974 3 12.5728 3.40125 12.5728 3.9V6.82875L11.7103 5.96625C11.3578 5.61375 10.7878 5.61375 10.439 5.96625C10.0903 6.31875 10.0865 6.88875 10.439 7.2375L12.5765 9.375V12.2437L10.094 10.8112L9.3103 7.89375C9.1828 7.41375 8.6878 7.12875 8.2078 7.25625C7.7278 7.38375 7.43905 7.875 7.5703 8.355L7.8853 9.53625L5.3503 8.07375C4.91905 7.8225 4.3678 7.96875 4.1203 8.4C3.8728 8.83125 4.01905 9.3825 4.4503 9.63L6.9853 11.0925L5.80405 11.4075C5.32405 11.535 5.03905 12.03 5.16655 12.51C5.29405 12.99 5.78905 13.275 6.26905 13.1475L9.18655 12.3637L11.669 13.7962L9.18655 15.2287L6.26905 14.445C5.78905 14.3175 5.29405 14.6025 5.16655 15.0825C5.03905 15.5625 5.32405 16.0575 5.80405 16.185L6.9853 16.5L4.4503 17.9625C4.01905 18.2175 3.8728 18.7687 4.1203 19.2C4.3678 19.6312 4.91905 19.7775 5.3503 19.53L7.8853 18.0675L7.5703 19.2487C7.4428 19.7287 7.7278 20.2237 8.2078 20.3512C8.6878 20.4788 9.1828 20.1938 9.3103 19.7137L10.094 16.7962L12.5765 15.3637V18.2325L10.439 20.37C10.0865 20.7225 10.0865 21.2925 10.439 21.6412C10.7915 21.99 11.3615 21.9937 11.7103 21.6412L12.5728 20.7787V23.7075C12.5728 24.2062 12.974 24.6075 13.4728 24.6075C13.9715 24.6075 14.3728 24.2062 14.3728 23.7075V20.7787L15.2353 21.6412C15.5878 21.9937 16.1578 21.9937 16.5065 21.6412C16.8553 21.2887 16.859 20.7188 16.5065 20.37L14.369 18.2325V15.3637L16.8515 16.7962L17.6353 19.7137C17.7628 20.1938 18.2578 20.4788 18.7378 20.3512C19.2178 20.2237 19.5028 19.7287 19.3753 19.2487L19.0603 18.0675L21.5953 19.53C22.0265 19.7775 22.5778 19.6312 22.8253 19.2C23.0728 18.7687 22.9265 18.2175 22.4953 17.97L19.9603 16.5075L21.1415 16.1925C21.6215 16.065 21.9065 15.57 21.779 15.09C21.6515 14.61 21.1565 14.325 20.6765 14.4525L17.759 15.2362L15.2765 13.8038L17.759 12.3712L20.6765 13.155C21.1565 13.2825 21.6515 12.9975 21.779 12.5175C21.9065 12.0375 21.6215 11.5425 21.1415 11.415L19.9603 11.1L22.4953 9.6375C22.9265 9.39 23.0728 8.83875 22.8253 8.4075C22.5778 7.97625 22.0265 7.83 21.5953 8.0775L19.0603 9.54L19.3753 8.35875C19.5028 7.87875 19.2178 7.38375 18.7378 7.25625C18.2578 7.12875 17.7628 7.41375 17.6353 7.89375L16.8515 10.8112L14.369 12.2437V9.375L16.5065 7.2375C16.859 6.885 16.859 6.315 16.5065 5.96625C16.154 5.6175 15.584 5.61375 15.2353 5.96625L14.3728 6.82875V3.9Z" fill="#FAFAFA" fill-opacity="0.3"/>
<path d="M37.3184 26.9C37.3184 26.4012 36.9171 26 36.4184 26C35.9196 26 35.5184 26.4012 35.5184 26.9V29.8287L34.6559 28.9662C34.3034 28.6137 33.7334 28.6137 33.3846 28.9662C33.0359 29.3187 33.0321 29.8887 33.3846 30.2375L35.5221 32.375V35.2437L33.0396 33.8112L32.2559 30.8937C32.1284 30.4137 31.6334 30.1287 31.1534 30.2562C30.6734 30.3837 30.3846 30.875 30.5159 31.355L30.8309 32.5362L28.2959 31.0738C27.8646 30.8225 27.3134 30.9687 27.0659 31.4C26.8184 31.8312 26.9646 32.3825 27.3959 32.63L29.9309 34.0925L28.7496 34.4075C28.2696 34.535 27.9846 35.03 28.1121 35.51C28.2396 35.99 28.7346 36.275 29.2146 36.1475L32.1321 35.3637L34.6146 36.7962L32.1321 38.2287L29.2146 37.445C28.7346 37.3175 28.2396 37.6025 28.1121 38.0825C27.9846 38.5625 28.2696 39.0575 28.7496 39.185L29.9309 39.5L27.3959 40.9625C26.9646 41.2175 26.8184 41.7687 27.0659 42.2C27.3134 42.6312 27.8646 42.7775 28.2959 42.53L30.8309 41.0675L30.5159 42.2487C30.3884 42.7287 30.6734 43.2237 31.1534 43.3512C31.6334 43.4788 32.1284 43.1938 32.2559 42.7137L33.0396 39.7962L35.5221 38.3637V41.2325L33.3846 43.37C33.0321 43.7225 33.0321 44.2925 33.3846 44.6412C33.7371 44.99 34.3071 44.9937 34.6559 44.6412L35.5184 43.7787V46.7075C35.5184 47.2062 35.9196 47.6075 36.4184 47.6075C36.9171 47.6075 37.3184 47.2062 37.3184 46.7075V43.7787L38.1809 44.6412C38.5334 44.9937 39.1034 44.9937 39.4521 44.6412C39.8009 44.2887 39.8046 43.7188 39.4521 43.37L37.3146 41.2325V38.3637L39.7971 39.7962L40.5809 42.7137C40.7084 43.1938 41.2034 43.4788 41.6834 43.3512C42.1634 43.2237 42.4484 42.7287 42.3209 42.2487L42.0059 41.0675L44.5409 42.53C44.9721 42.7775 45.5234 42.6312 45.7709 42.2C46.0184 41.7687 45.8721 41.2175 45.4409 40.97L42.9059 39.5075L44.0871 39.1925C44.5671 39.065 44.8521 38.57 44.7246 38.09C44.5971 37.61 44.1021 37.325 43.6221 37.4525L40.7046 38.2362L38.2221 36.8038L40.7046 35.3712L43.6221 36.155C44.1021 36.2825 44.5971 35.9975 44.7246 35.5175C44.8521 35.0375 44.5671 34.5425 44.0871 34.415L42.9059 34.1L45.4409 32.6375C45.8721 32.39 46.0184 31.8387 45.7709 31.4075C45.5234 30.9762 44.9721 30.83 44.5409 31.0775L42.0059 32.54L42.3209 31.3587C42.4484 30.8787 42.1634 30.3837 41.6834 30.2562C41.2034 30.1287 40.7084 30.4137 40.5809 30.8937L39.7971 33.8112L37.3146 35.2437V32.375L39.4521 30.2375C39.8046 29.885 39.8046 29.315 39.4521 28.9662C39.0996 28.6175 38.5296 28.6137 38.1809 28.9662L37.3184 29.8287V26.9Z" fill="#FAFAFA" fill-opacity="0.3"/>
</svg>
