<svg width="143" height="32" viewBox="0 0 143 32" fill="none" xmlns="http://www.w3.org/2000/svg">
<path d="M16 1.6C16.35 1.6 16.685 1.755 16.915 2.025L23.715 10.025C24.02 10.38 24.085 10.88 23.89 11.305C23.695 11.73 23.27 12 22.8 12H21.555L25.315 16.425C25.62 16.78 25.685 17.28 25.49 17.705C25.295 18.13 24.87 18.4 24.4 18.4H22.475L26.915 23.625C27.22 23.98 27.285 24.48 27.09 24.905C26.895 25.33 26.47 25.6 26 25.6H17.6V28.8C17.6 29.685 16.885 30.4 16 30.4C15.115 30.4 14.4 29.685 14.4 28.8V25.6H6.00001C5.53001 25.6 5.10501 25.33 4.91001 24.905C4.71501 24.48 4.78001 23.98 5.08501 23.625L9.52501 18.4H7.60001C7.13001 18.4 6.70501 18.13 6.51001 17.705C6.31501 17.28 6.38001 16.78 6.68501 16.425L10.445 12H9.20001C8.73001 12 8.30501 11.73 8.11001 11.305C7.91501 10.88 7.98001 10.38 8.28501 10.025L15.085 2.025C15.315 1.755 15.65 1.6 16 1.6Z" fill="#4F5148"/>
<path d="M38.9097 17.8403V15.7964C38.9097 11.5513 41.4478 8.88965 45.5806 8.88965C47.3213 8.88965 48.8599 9.36133 49.9829 10.2036C50.9937 10.9336 51.6562 11.8994 51.6562 12.7866C51.6562 13.6738 51.0386 14.2803 50.1514 14.2803C49.7134 14.2803 49.3765 14.1343 49.0508 13.8086C48.1411 12.8989 47.2988 12.0229 45.8501 12.0229C43.7275 12.0229 42.6157 13.3818 42.6157 15.9761V17.8291C42.6157 20.3896 43.75 21.7935 45.8164 21.7935C47.4224 21.7935 48.5005 20.8501 48.5005 19.4463V18.7949H47.1191C46.1421 18.7949 45.603 18.3232 45.603 17.4697C45.603 16.6274 46.1309 16.167 47.1191 16.167H49.8706C51.353 16.167 52.0044 16.8071 52.0044 18.2334V19.1655C52.0044 22.5459 49.4551 24.8369 45.6704 24.8369C41.4141 24.8369 38.9097 22.209 38.9097 17.8403ZM57.7881 22.6357C57.7881 23.8936 57.1143 24.6123 55.9463 24.6123C54.7671 24.6123 54.1831 23.8936 54.1831 22.6357V14.3813C54.1831 13.1123 54.8008 12.4048 55.9575 12.4048C57.002 12.4048 57.5972 12.9888 57.6758 14.0781V14.2466H57.8442C58.2485 13.0112 59.1021 12.3262 60.2588 12.3262C60.7529 12.3262 61.146 12.4609 61.4268 12.7305C61.7188 13 61.876 13.3931 61.876 13.8984C61.876 14.3926 61.73 14.752 61.438 14.999C61.1685 15.2236 60.7529 15.3472 60.2139 15.3696C58.5854 15.4258 57.7881 16.313 57.7881 18.0312V22.6357ZM62.7856 19.1768V17.8516C62.7856 14.46 65.0317 12.2139 68.4121 12.2139C71.5903 12.2139 73.8364 14.4375 73.8364 17.4136C73.8364 18.7837 73.3535 19.2778 72.062 19.2778H66.458V19.7158C66.4805 21.1309 67.4238 22.0854 69.0298 22.0854C69.8945 22.0854 70.4785 21.8945 70.939 21.5576C71.4893 21.2095 71.7251 20.9961 72.2866 20.9961C73.0166 20.9961 73.4995 21.4678 73.4995 22.2314C73.4995 22.8716 73.1064 23.4331 72.4214 23.8599C71.6016 24.4438 70.2876 24.792 68.7715 24.792C65.0654 24.792 62.7856 22.6807 62.7856 19.1768ZM66.458 17.2114H70.4336V17.1777C70.4336 15.8076 69.6699 14.9092 68.4907 14.9092C67.2217 14.9092 66.458 15.8301 66.458 17.1777V17.2114ZM75.4536 19.1768V17.8516C75.4536 14.46 77.6997 12.2139 81.0801 12.2139C84.2583 12.2139 86.5044 14.4375 86.5044 17.4136C86.5044 18.7837 86.0215 19.2778 84.73 19.2778H79.126V19.7158C79.1484 21.1309 80.0918 22.0854 81.6978 22.0854C82.5625 22.0854 83.1465 21.8945 83.6069 21.5576C84.1572 21.2095 84.3931 20.9961 84.9546 20.9961C85.6846 20.9961 86.1675 21.4678 86.1675 22.2314C86.1675 22.8716 85.7744 23.4331 85.0894 23.8599C84.2695 24.4438 82.9556 24.792 81.4395 24.792C77.7334 24.792 75.4536 22.6807 75.4536 19.1768ZM79.126 17.2114H83.1016V17.1777C83.1016 15.8076 82.3379 14.9092 81.1587 14.9092C79.8896 14.9092 79.126 15.8301 79.126 17.1777V17.2114ZM89.5815 21.2769V15.3921H89.1436C88.189 15.3921 87.6499 14.8867 87.6499 14.022C87.6499 13.1572 88.189 12.6519 89.1436 12.6519H89.6714V11.3491C89.6714 10.1138 90.3003 9.42871 91.4121 9.42871C92.5352 9.42871 93.1528 10.1138 93.1528 11.3491V12.6519H94.0962C95.0508 12.6519 95.5898 13.1572 95.5898 14.022C95.5898 14.8867 95.0508 15.3921 94.0962 15.3921H93.1978V20.7266C93.1978 21.6924 93.4673 22.0518 94.231 22.0518C94.5454 22.0518 94.7363 21.9956 95.0508 21.9956C95.6123 21.9956 96.0054 22.3887 96.0054 23.0176C96.0054 23.5342 95.7695 23.9609 95.3203 24.2642C94.8374 24.6011 94.1299 24.7808 93.2202 24.7808C90.7271 24.7808 89.5815 23.7026 89.5815 21.2769ZM97.7236 9.43994C97.7236 8.41797 98.5435 7.68799 99.6665 7.68799C100.801 7.68799 101.609 8.41797 101.609 9.43994C101.609 10.4731 100.801 11.2031 99.6665 11.2031C98.5435 11.2031 97.7236 10.4731 97.7236 9.43994ZM101.475 22.6357C101.475 23.9272 100.812 24.6123 99.6665 24.6123C98.521 24.6123 97.8696 23.9272 97.8696 22.6357V14.3813C97.8696 13.0898 98.5322 12.4048 99.6665 12.4048C100.812 12.4048 101.475 13.0898 101.475 14.3813V22.6357ZM115.344 22.647C115.344 23.9272 114.693 24.6123 113.536 24.6123C112.368 24.6123 111.728 23.9048 111.728 22.6357V17.5146C111.728 16.1333 111.043 15.3135 109.864 15.3135C108.595 15.3135 107.775 16.2793 107.775 17.8628V22.6357C107.775 23.9048 107.135 24.6123 105.978 24.6123C104.821 24.6123 104.17 23.9048 104.17 22.6357V14.314C104.17 13.1235 104.844 12.4048 105.933 12.4048C107 12.4048 107.618 13.0112 107.674 14.1455V14.5835H107.854C108.292 13.2134 109.673 12.3262 111.38 12.3262C113.907 12.3262 115.344 13.8647 115.344 16.5713V22.647ZM125.193 22.3438C124.755 23.4556 123.509 24.2192 121.858 24.2192C119.174 24.2192 117.433 22.2202 117.433 18.7388V17.8179C117.433 14.3364 119.174 12.3262 121.847 12.3262C123.565 12.3262 124.812 13.1797 125.227 14.3364H125.407V14.0332C125.485 12.9326 126.148 12.3599 127.17 12.3599C128.315 12.3599 128.978 13.0562 128.978 14.3364V24.1519C128.978 27.3301 126.698 29.0034 123.048 29.0034C121.409 29.0034 120.106 28.7451 119.23 28.2622C118.41 27.813 117.916 27.1616 117.916 26.3867C117.916 25.5894 118.478 25.0615 119.365 25.0615C119.859 25.0615 120.185 25.2524 120.578 25.4883C121.128 25.7915 121.813 26.207 123.026 26.207C124.621 26.207 125.373 25.4771 125.373 23.8599V22.3438H125.193ZM121.162 18.7949C121.162 20.5469 121.993 21.6475 123.295 21.6475C124.632 21.6475 125.373 20.502 125.373 18.9297V17.8516C125.373 16.2568 124.621 15.1226 123.273 15.1226C121.97 15.1226 121.162 16.2119 121.162 17.9751V18.7949ZM131.134 22.1191C131.134 21.3779 131.662 20.8726 132.448 20.8726C132.864 20.8726 133.189 21.0186 133.785 21.3779C134.739 21.9731 135.436 22.2202 136.267 22.2202C137.3 22.2202 137.929 21.8159 137.929 21.1421C137.929 20.5469 137.435 20.1313 136.334 19.8843L134.661 19.5249C132.347 19.042 131.292 17.9302 131.292 16.0996C131.292 13.7637 133.313 12.2139 136.435 12.2139C137.558 12.2139 138.625 12.4272 139.479 12.8428C140.444 13.292 140.983 13.9546 140.983 14.707C140.983 15.4482 140.444 15.8975 139.669 15.8975C139.31 15.8975 138.928 15.7852 138.322 15.4482C137.423 14.9204 136.862 14.752 136.244 14.752C135.301 14.752 134.739 15.2236 134.739 15.8862C134.739 16.459 135.144 16.7847 136.076 16.9868L138.187 17.4136C140.354 17.8628 141.376 18.9746 141.376 20.8164C141.376 23.2759 139.4 24.792 136.064 24.792C134.706 24.792 133.493 24.5337 132.594 24.0732C131.651 23.5903 131.134 22.9053 131.134 22.1191Z" fill="#4F5148"/>
</svg>
