<?xml version="1.0" standalone="no"?>
<svg xmlns="http://www.w3.org/2000/svg" class="page-qrcode" width="500px" height="500px"><defs><clipPath id="clip-path-dot-color"><circle cx="26" cy="152" r="7" transform="rotate(0,26,152)"/><circle cx="26" cy="180" r="7" transform="rotate(0,26,180)"/><circle cx="26" cy="208" r="7" transform="rotate(0,26,208)"/><circle cx="26" cy="264" r="7" transform="rotate(0,26,264)"/><circle cx="26" cy="278" r="7" transform="rotate(0,26,278)"/><circle cx="26" cy="320" r="7" transform="rotate(0,26,320)"/><circle cx="26" cy="334" r="7" transform="rotate(0,26,334)"/><circle cx="26" cy="348" r="7" transform="rotate(0,26,348)"/><circle cx="40" cy="152" r="7" transform="rotate(0,40,152)"/><circle cx="40" cy="264" r="7" transform="rotate(0,40,264)"/><circle cx="40" cy="292" r="7" transform="rotate(0,40,292)"/><circle cx="40" cy="306" r="7" transform="rotate(0,40,306)"/><circle cx="40" cy="320" r="7" transform="rotate(0,40,320)"/><circle cx="40" cy="334" r="7" transform="rotate(0,40,334)"/><circle cx="40" cy="362" r="7" transform="rotate(0,40,362)"/><circle cx="54" cy="138" r="7" transform="rotate(0,54,138)"/><circle cx="54" cy="152" r="7" transform="rotate(0,54,152)"/><circle cx="54" cy="180" r="7" transform="rotate(0,54,180)"/><circle cx="54" cy="208" r="7" transform="rotate(0,54,208)"/><circle cx="54" cy="306" r="7" transform="rotate(0,54,306)"/><circle cx="54" cy="334" r="7" transform="rotate(0,54,334)"/><circle cx="54" cy="348" r="7" transform="rotate(0,54,348)"/><circle cx="54" cy="362" r="7" transform="rotate(0,54,362)"/><circle cx="68" cy="166" r="7" transform="rotate(0,68,166)"/><circle cx="68" cy="194" r="7" transform="rotate(0,68,194)"/><circle cx="68" cy="222" r="7" transform="rotate(0,68,222)"/><circle cx="68" cy="236" r="7" transform="rotate(0,68,236)"/><circle cx="68" cy="264" r="7" transform="rotate(0,68,264)"/><circle cx="68" cy="278" r="7" transform="rotate(0,68,278)"/><circle cx="68" cy="306" r="7" transform="rotate(0,68,306)"/><circle cx="68" cy="320" r="7" transform="rotate(0,68,320)"/><circle cx="68" cy="348" r="7" transform="rotate(0,68,348)"/><circle cx="68" cy="362" r="7" transform="rotate(0,68,362)"/><circle cx="82" cy="138" r="7" transform="rotate(0,82,138)"/><circle cx="82" cy="152" r="7" transform="rotate(0,82,152)"/><circle cx="82" cy="180" r="7" transform="rotate(0,82,180)"/><circle cx="82" cy="194" r="7" transform="rotate(0,82,194)"/><circle cx="82" cy="250" r="7" transform="rotate(0,82,250)"/><circle cx="82" cy="264" r="7" transform="rotate(0,82,264)"/><circle cx="82" cy="278" r="7" transform="rotate(0,82,278)"/><circle cx="82" cy="292" r="7" transform="rotate(0,82,292)"/><circle cx="82" cy="306" r="7" transform="rotate(0,82,306)"/><circle cx="82" cy="362" r="7" transform="rotate(0,82,362)"/><circle cx="96" cy="138" r="7" transform="rotate(0,96,138)"/><circle cx="96" cy="166" r="7" transform="rotate(0,96,166)"/><circle cx="96" cy="180" r="7" transform="rotate(0,96,180)"/><circle cx="96" cy="208" r="7" transform="rotate(0,96,208)"/><circle cx="96" cy="250" r="7" transform="rotate(0,96,250)"/><circle cx="96" cy="278" r="7" transform="rotate(0,96,278)"/><circle cx="96" cy="292" r="7" transform="rotate(0,96,292)"/><circle cx="96" cy="334" r="7" transform="rotate(0,96,334)"/><circle cx="110" cy="138" r="7" transform="rotate(0,110,138)"/><circle cx="110" cy="166" r="7" transform="rotate(0,110,166)"/><circle cx="110" cy="194" r="7" transform="rotate(0,110,194)"/><circle cx="110" cy="222" r="7" transform="rotate(0,110,222)"/><circle cx="110" cy="250" r="7" transform="rotate(0,110,250)"/><circle cx="110" cy="278" r="7" transform="rotate(0,110,278)"/><circle cx="110" cy="306" r="7" transform="rotate(0,110,306)"/><circle cx="110" cy="334" r="7" transform="rotate(0,110,334)"/><circle cx="110" cy="362" r="7" transform="rotate(0,110,362)"/><circle cx="124" cy="152" r="7" transform="rotate(0,124,152)"/><circle cx="124" cy="166" r="7" transform="rotate(0,124,166)"/><circle cx="124" cy="180" r="7" transform="rotate(0,124,180)"/><circle cx="124" cy="194" r="7" transform="rotate(0,124,194)"/><circle cx="124" cy="222" r="7" transform="rotate(0,124,222)"/><circle cx="124" cy="250" r="7" transform="rotate(0,124,250)"/><circle cx="124" cy="264" r="7" transform="rotate(0,124,264)"/><circle cx="124" cy="320" r="7" transform="rotate(0,124,320)"/><circle cx="124" cy="348" r="7" transform="rotate(0,124,348)"/><circle cx="138" cy="40" r="7" transform="rotate(0,138,40)"/><circle cx="138" cy="82" r="7" transform="rotate(0,138,82)"/><circle cx="138" cy="110" r="7" transform="rotate(0,138,110)"/><circle cx="138" cy="138" r="7" transform="rotate(0,138,138)"/><circle cx="138" cy="152" r="7" transform="rotate(0,138,152)"/><circle cx="138" cy="166" r="7" transform="rotate(0,138,166)"/><circle cx="138" cy="222" r="7" transform="rotate(0,138,222)"/><circle cx="138" cy="236" r="7" transform="rotate(0,138,236)"/><circle cx="138" cy="264" r="7" transform="rotate(0,138,264)"/><circle cx="138" cy="292" r="7" transform="rotate(0,138,292)"/><circle cx="138" cy="320" r="7" transform="rotate(0,138,320)"/><circle cx="138" cy="334" r="7" transform="rotate(0,138,334)"/><circle cx="138" cy="376" r="7" transform="rotate(0,138,376)"/><circle cx="138" cy="404" r="7" transform="rotate(0,138,404)"/><circle cx="138" cy="418" r="7" transform="rotate(0,138,418)"/><circle cx="138" cy="446" r="7" transform="rotate(0,138,446)"/><circle cx="152" cy="26" r="7" transform="rotate(0,152,26)"/><circle cx="152" cy="40" r="7" transform="rotate(0,152,40)"/><circle cx="152" cy="54" r="7" transform="rotate(0,152,54)"/><circle cx="152" cy="68" r="7" transform="rotate(0,152,68)"/><circle cx="152" cy="82" r="7" transform="rotate(0,152,82)"/><circle cx="152" cy="124" r="7" transform="rotate(0,152,124)"/><circle cx="152" cy="138" r="7" transform="rotate(0,152,138)"/><circle cx="152" cy="152" r="7" transform="rotate(0,152,152)"/><circle cx="152" cy="180" r="7" transform="rotate(0,152,180)"/><circle cx="152" cy="208" r="7" transform="rotate(0,152,208)"/><circle cx="152" cy="236" r="7" transform="rotate(0,152,236)"/><circle cx="152" cy="250" r="7" transform="rotate(0,152,250)"/><circle cx="152" cy="348" r="7" transform="rotate(0,152,348)"/><circle cx="152" cy="376" r="7" transform="rotate(0,152,376)"/><circle cx="152" cy="432" r="7" transform="rotate(0,152,432)"/><circle cx="152" cy="446" r="7" transform="rotate(0,152,446)"/><circle cx="152" cy="460" r="7" transform="rotate(0,152,460)"/><circle cx="166" cy="40" r="7" transform="rotate(0,166,40)"/><circle cx="166" cy="96" r="7" transform="rotate(0,166,96)"/><circle cx="166" cy="110" r="7" transform="rotate(0,166,110)"/><circle cx="166" cy="166" r="7" transform="rotate(0,166,166)"/><circle cx="166" cy="194" r="7" transform="rotate(0,166,194)"/><circle cx="166" cy="208" r="7" transform="rotate(0,166,208)"/><circle cx="166" cy="222" r="7" transform="rotate(0,166,222)"/><circle cx="166" cy="236" r="7" transform="rotate(0,166,236)"/><circle cx="166" cy="264" r="7" transform="rotate(0,166,264)"/><circle cx="166" cy="306" r="7" transform="rotate(0,166,306)"/><circle cx="166" cy="320" r="7" transform="rotate(0,166,320)"/><circle cx="166" cy="334" r="7" transform="rotate(0,166,334)"/><circle cx="166" cy="348" r="7" transform="rotate(0,166,348)"/><circle cx="166" cy="362" r="7" transform="rotate(0,166,362)"/><circle cx="166" cy="376" r="7" transform="rotate(0,166,376)"/><circle cx="166" cy="432" r="7" transform="rotate(0,166,432)"/><circle cx="166" cy="460" r="7" transform="rotate(0,166,460)"/><circle cx="180" cy="40" r="7" transform="rotate(0,180,40)"/><circle cx="180" cy="54" r="7" transform="rotate(0,180,54)"/><circle cx="180" cy="68" r="7" transform="rotate(0,180,68)"/><circle cx="180" cy="82" r="7" transform="rotate(0,180,82)"/><circle cx="180" cy="124" r="7" transform="rotate(0,180,124)"/><circle cx="180" cy="166" r="7" transform="rotate(0,180,166)"/><circle cx="180" cy="180" r="7" transform="rotate(0,180,180)"/><circle cx="180" cy="194" r="7" transform="rotate(0,180,194)"/><circle cx="180" cy="222" r="7" transform="rotate(0,180,222)"/><circle cx="180" cy="250" r="7" transform="rotate(0,180,250)"/><circle cx="180" cy="264" r="7" transform="rotate(0,180,264)"/><circle cx="180" cy="278" r="7" transform="rotate(0,180,278)"/><circle cx="180" cy="320" r="7" transform="rotate(0,180,320)"/><circle cx="180" cy="376" r="7" transform="rotate(0,180,376)"/><circle cx="180" cy="390" r="7" transform="rotate(0,180,390)"/><circle cx="180" cy="474" r="7" transform="rotate(0,180,474)"/><circle cx="194" cy="82" r="7" transform="rotate(0,194,82)"/><circle cx="194" cy="96" r="7" transform="rotate(0,194,96)"/><circle cx="194" cy="110" r="7" transform="rotate(0,194,110)"/><circle cx="194" cy="124" r="7" transform="rotate(0,194,124)"/><circle cx="194" cy="138" r="7" transform="rotate(0,194,138)"/><circle cx="194" cy="180" r="7" transform="rotate(0,194,180)"/><circle cx="194" cy="208" r="7" transform="rotate(0,194,208)"/><circle cx="194" cy="236" r="7" transform="rotate(0,194,236)"/><circle cx="194" cy="250" r="7" transform="rotate(0,194,250)"/><circle cx="194" cy="278" r="7" transform="rotate(0,194,278)"/><circle cx="194" cy="306" r="7" transform="rotate(0,194,306)"/><circle cx="194" cy="362" r="7" transform="rotate(0,194,362)"/><circle cx="194" cy="390" r="7" transform="rotate(0,194,390)"/><circle cx="194" cy="418" r="7" transform="rotate(0,194,418)"/><circle cx="194" cy="432" r="7" transform="rotate(0,194,432)"/><circle cx="208" cy="26" r="7" transform="rotate(0,208,26)"/><circle cx="208" cy="40" r="7" transform="rotate(0,208,40)"/><circle cx="208" cy="96" r="7" transform="rotate(0,208,96)"/><circle cx="208" cy="166" r="7" transform="rotate(0,208,166)"/><circle cx="208" cy="194" r="7" transform="rotate(0,208,194)"/><circle cx="208" cy="236" r="7" transform="rotate(0,208,236)"/><circle cx="208" cy="264" r="7" transform="rotate(0,208,264)"/><circle cx="208" cy="292" r="7" transform="rotate(0,208,292)"/><circle cx="208" cy="334" r="7" transform="rotate(0,208,334)"/><circle cx="208" cy="376" r="7" transform="rotate(0,208,376)"/><circle cx="208" cy="404" r="7" transform="rotate(0,208,404)"/><circle cx="222" cy="68" r="7" transform="rotate(0,222,68)"/><circle cx="222" cy="96" r="7" transform="rotate(0,222,96)"/><circle cx="222" cy="110" r="7" transform="rotate(0,222,110)"/><circle cx="222" cy="124" r="7" transform="rotate(0,222,124)"/><circle cx="222" cy="180" r="7" transform="rotate(0,222,180)"/><circle cx="222" cy="194" r="7" transform="rotate(0,222,194)"/><circle cx="222" cy="208" r="7" transform="rotate(0,222,208)"/><circle cx="222" cy="222" r="7" transform="rotate(0,222,222)"/><circle cx="222" cy="278" r="7" transform="rotate(0,222,278)"/><circle cx="222" cy="292" r="7" transform="rotate(0,222,292)"/><circle cx="222" cy="320" r="7" transform="rotate(0,222,320)"/><circle cx="222" cy="376" r="7" transform="rotate(0,222,376)"/><circle cx="222" cy="390" r="7" transform="rotate(0,222,390)"/><circle cx="222" cy="418" r="7" transform="rotate(0,222,418)"/><circle cx="222" cy="460" r="7" transform="rotate(0,222,460)"/><circle cx="236" cy="26" r="7" transform="rotate(0,236,26)"/><circle cx="236" cy="40" r="7" transform="rotate(0,236,40)"/><circle cx="236" cy="68" r="7" transform="rotate(0,236,68)"/><circle cx="236" cy="96" r="7" transform="rotate(0,236,96)"/><circle cx="236" cy="152" r="7" transform="rotate(0,236,152)"/><circle cx="236" cy="208" r="7" transform="rotate(0,236,208)"/><circle cx="236" cy="250" r="7" transform="rotate(0,236,250)"/><circle cx="236" cy="264" r="7" transform="rotate(0,236,264)"/><circle cx="236" cy="278" r="7" transform="rotate(0,236,278)"/><circle cx="236" cy="292" r="7" transform="rotate(0,236,292)"/><circle cx="236" cy="306" r="7" transform="rotate(0,236,306)"/><circle cx="236" cy="320" r="7" transform="rotate(0,236,320)"/><circle cx="236" cy="334" r="7" transform="rotate(0,236,334)"/><circle cx="236" cy="362" r="7" transform="rotate(0,236,362)"/><circle cx="236" cy="376" r="7" transform="rotate(0,236,376)"/><circle cx="236" cy="390" r="7" transform="rotate(0,236,390)"/><circle cx="236" cy="404" r="7" transform="rotate(0,236,404)"/><circle cx="236" cy="418" r="7" transform="rotate(0,236,418)"/><circle cx="250" cy="26" r="7" transform="rotate(0,250,26)"/><circle cx="250" cy="54" r="7" transform="rotate(0,250,54)"/><circle cx="250" cy="68" r="7" transform="rotate(0,250,68)"/><circle cx="250" cy="82" r="7" transform="rotate(0,250,82)"/><circle cx="250" cy="110" r="7" transform="rotate(0,250,110)"/><circle cx="250" cy="124" r="7" transform="rotate(0,250,124)"/><circle cx="250" cy="138" r="7" transform="rotate(0,250,138)"/><circle cx="250" cy="152" r="7" transform="rotate(0,250,152)"/><circle cx="250" cy="180" r="7" transform="rotate(0,250,180)"/><circle cx="250" cy="194" r="7" transform="rotate(0,250,194)"/><circle cx="250" cy="208" r="7" transform="rotate(0,250,208)"/><circle cx="250" cy="222" r="7" transform="rotate(0,250,222)"/><circle cx="250" cy="250" r="7" transform="rotate(0,250,250)"/><circle cx="250" cy="306" r="7" transform="rotate(0,250,306)"/><circle cx="250" cy="320" r="7" transform="rotate(0,250,320)"/><circle cx="250" cy="334" r="7" transform="rotate(0,250,334)"/><circle cx="250" cy="348" r="7" transform="rotate(0,250,348)"/><circle cx="250" cy="376" r="7" transform="rotate(0,250,376)"/><circle cx="250" cy="390" r="7" transform="rotate(0,250,390)"/><circle cx="250" cy="418" r="7" transform="rotate(0,250,418)"/><circle cx="250" cy="460" r="7" transform="rotate(0,250,460)"/><circle cx="264" cy="26" r="7" transform="rotate(0,264,26)"/><circle cx="264" cy="40" r="7" transform="rotate(0,264,40)"/><circle cx="264" cy="54" r="7" transform="rotate(0,264,54)"/><circle cx="264" cy="82" r="7" transform="rotate(0,264,82)"/><circle cx="264" cy="124" r="7" transform="rotate(0,264,124)"/><circle cx="264" cy="138" r="7" transform="rotate(0,264,138)"/><circle cx="264" cy="152" r="7" transform="rotate(0,264,152)"/><circle cx="264" cy="194" r="7" transform="rotate(0,264,194)"/><circle cx="264" cy="320" r="7" transform="rotate(0,264,320)"/><circle cx="264" cy="348" r="7" transform="rotate(0,264,348)"/><circle cx="264" cy="432" r="7" transform="rotate(0,264,432)"/><circle cx="264" cy="446" r="7" transform="rotate(0,264,446)"/><circle cx="264" cy="460" r="7" transform="rotate(0,264,460)"/><circle cx="278" cy="40" r="7" transform="rotate(0,278,40)"/><circle cx="278" cy="54" r="7" transform="rotate(0,278,54)"/><circle cx="278" cy="96" r="7" transform="rotate(0,278,96)"/><circle cx="278" cy="110" r="7" transform="rotate(0,278,110)"/><circle cx="278" cy="124" r="7" transform="rotate(0,278,124)"/><circle cx="278" cy="138" r="7" transform="rotate(0,278,138)"/><circle cx="278" cy="152" r="7" transform="rotate(0,278,152)"/><circle cx="278" cy="180" r="7" transform="rotate(0,278,180)"/><circle cx="278" cy="306" r="7" transform="rotate(0,278,306)"/><circle cx="278" cy="348" r="7" transform="rotate(0,278,348)"/><circle cx="278" cy="362" r="7" transform="rotate(0,278,362)"/><circle cx="278" cy="376" r="7" transform="rotate(0,278,376)"/><circle cx="278" cy="404" r="7" transform="rotate(0,278,404)"/><circle cx="278" cy="432" r="7" transform="rotate(0,278,432)"/><circle cx="292" cy="54" r="7" transform="rotate(0,292,54)"/><circle cx="292" cy="68" r="7" transform="rotate(0,292,68)"/><circle cx="292" cy="124" r="7" transform="rotate(0,292,124)"/><circle cx="292" cy="138" r="7" transform="rotate(0,292,138)"/><circle cx="292" cy="166" r="7" transform="rotate(0,292,166)"/><circle cx="292" cy="180" r="7" transform="rotate(0,292,180)"/><circle cx="292" cy="208" r="7" transform="rotate(0,292,208)"/><circle cx="292" cy="222" r="7" transform="rotate(0,292,222)"/><circle cx="292" cy="264" r="7" transform="rotate(0,292,264)"/><circle cx="292" cy="292" r="7" transform="rotate(0,292,292)"/><circle cx="292" cy="306" r="7" transform="rotate(0,292,306)"/><circle cx="292" cy="334" r="7" transform="rotate(0,292,334)"/><circle cx="292" cy="348" r="7" transform="rotate(0,292,348)"/><circle cx="292" cy="376" r="7" transform="rotate(0,292,376)"/><circle cx="292" cy="404" r="7" transform="rotate(0,292,404)"/><circle cx="292" cy="474" r="7" transform="rotate(0,292,474)"/><circle cx="306" cy="40" r="7" transform="rotate(0,306,40)"/><circle cx="306" cy="54" r="7" transform="rotate(0,306,54)"/><circle cx="306" cy="82" r="7" transform="rotate(0,306,82)"/><circle cx="306" cy="110" r="7" transform="rotate(0,306,110)"/><circle cx="306" cy="124" r="7" transform="rotate(0,306,124)"/><circle cx="306" cy="138" r="7" transform="rotate(0,306,138)"/><circle cx="306" cy="152" r="7" transform="rotate(0,306,152)"/><circle cx="306" cy="180" r="7" transform="rotate(0,306,180)"/><circle cx="306" cy="208" r="7" transform="rotate(0,306,208)"/><circle cx="306" cy="222" r="7" transform="rotate(0,306,222)"/><circle cx="306" cy="250" r="7" transform="rotate(0,306,250)"/><circle cx="306" cy="292" r="7" transform="rotate(0,306,292)"/><circle cx="306" cy="334" r="7" transform="rotate(0,306,334)"/><circle cx="306" cy="348" r="7" transform="rotate(0,306,348)"/><circle cx="306" cy="362" r="7" transform="rotate(0,306,362)"/><circle cx="306" cy="390" r="7" transform="rotate(0,306,390)"/><circle cx="306" cy="418" r="7" transform="rotate(0,306,418)"/><circle cx="306" cy="432" r="7" transform="rotate(0,306,432)"/><circle cx="306" cy="460" r="7" transform="rotate(0,306,460)"/><circle cx="306" cy="474" r="7" transform="rotate(0,306,474)"/><circle cx="320" cy="26" r="7" transform="rotate(0,320,26)"/><circle cx="320" cy="40" r="7" transform="rotate(0,320,40)"/><circle cx="320" cy="68" r="7" transform="rotate(0,320,68)"/><circle cx="320" cy="82" r="7" transform="rotate(0,320,82)"/><circle cx="320" cy="96" r="7" transform="rotate(0,320,96)"/><circle cx="320" cy="138" r="7" transform="rotate(0,320,138)"/><circle cx="320" cy="152" r="7" transform="rotate(0,320,152)"/><circle cx="320" cy="166" r="7" transform="rotate(0,320,166)"/><circle cx="320" cy="208" r="7" transform="rotate(0,320,208)"/><circle cx="320" cy="222" r="7" transform="rotate(0,320,222)"/><circle cx="320" cy="236" r="7" transform="rotate(0,320,236)"/><circle cx="320" cy="250" r="7" transform="rotate(0,320,250)"/><circle cx="320" cy="292" r="7" transform="rotate(0,320,292)"/><circle cx="320" cy="306" r="7" transform="rotate(0,320,306)"/><circle cx="320" cy="320" r="7" transform="rotate(0,320,320)"/><circle cx="320" cy="362" r="7" transform="rotate(0,320,362)"/><circle cx="320" cy="404" r="7" transform="rotate(0,320,404)"/><circle cx="320" cy="432" r="7" transform="rotate(0,320,432)"/><circle cx="320" cy="460" r="7" transform="rotate(0,320,460)"/><circle cx="334" cy="54" r="7" transform="rotate(0,334,54)"/><circle cx="334" cy="82" r="7" transform="rotate(0,334,82)"/><circle cx="334" cy="110" r="7" transform="rotate(0,334,110)"/><circle cx="334" cy="124" r="7" transform="rotate(0,334,124)"/><circle cx="334" cy="152" r="7" transform="rotate(0,334,152)"/><circle cx="334" cy="166" r="7" transform="rotate(0,334,166)"/><circle cx="334" cy="236" r="7" transform="rotate(0,334,236)"/><circle cx="334" cy="250" r="7" transform="rotate(0,334,250)"/><circle cx="334" cy="264" r="7" transform="rotate(0,334,264)"/><circle cx="334" cy="278" r="7" transform="rotate(0,334,278)"/><circle cx="334" cy="306" r="7" transform="rotate(0,334,306)"/><circle cx="334" cy="320" r="7" transform="rotate(0,334,320)"/><circle cx="334" cy="334" r="7" transform="rotate(0,334,334)"/><circle cx="334" cy="348" r="7" transform="rotate(0,334,348)"/><circle cx="334" cy="362" r="7" transform="rotate(0,334,362)"/><circle cx="334" cy="404" r="7" transform="rotate(0,334,404)"/><circle cx="334" cy="418" r="7" transform="rotate(0,334,418)"/><circle cx="334" cy="446" r="7" transform="rotate(0,334,446)"/><circle cx="334" cy="460" r="7" transform="rotate(0,334,460)"/><circle cx="348" cy="96" r="7" transform="rotate(0,348,96)"/><circle cx="348" cy="124" r="7" transform="rotate(0,348,124)"/><circle cx="348" cy="138" r="7" transform="rotate(0,348,138)"/><circle cx="348" cy="166" r="7" transform="rotate(0,348,166)"/><circle cx="348" cy="180" r="7" transform="rotate(0,348,180)"/><circle cx="348" cy="194" r="7" transform="rotate(0,348,194)"/><circle cx="348" cy="208" r="7" transform="rotate(0,348,208)"/><circle cx="348" cy="236" r="7" transform="rotate(0,348,236)"/><circle cx="348" cy="250" r="7" transform="rotate(0,348,250)"/><circle cx="348" cy="264" r="7" transform="rotate(0,348,264)"/><circle cx="348" cy="320" r="7" transform="rotate(0,348,320)"/><circle cx="348" cy="362" r="7" transform="rotate(0,348,362)"/><circle cx="348" cy="390" r="7" transform="rotate(0,348,390)"/><circle cx="348" cy="404" r="7" transform="rotate(0,348,404)"/><circle cx="348" cy="418" r="7" transform="rotate(0,348,418)"/><circle cx="348" cy="432" r="7" transform="rotate(0,348,432)"/><circle cx="348" cy="474" r="7" transform="rotate(0,348,474)"/><circle cx="362" cy="26" r="7" transform="rotate(0,362,26)"/><circle cx="362" cy="40" r="7" transform="rotate(0,362,40)"/><circle cx="362" cy="54" r="7" transform="rotate(0,362,54)"/><circle cx="362" cy="68" r="7" transform="rotate(0,362,68)"/><circle cx="362" cy="82" r="7" transform="rotate(0,362,82)"/><circle cx="362" cy="110" r="7" transform="rotate(0,362,110)"/><circle cx="362" cy="124" r="7" transform="rotate(0,362,124)"/><circle cx="362" cy="138" r="7" transform="rotate(0,362,138)"/><circle cx="362" cy="152" r="7" transform="rotate(0,362,152)"/><circle cx="362" cy="166" r="7" transform="rotate(0,362,166)"/><circle cx="362" cy="180" r="7" transform="rotate(0,362,180)"/><circle cx="362" cy="194" r="7" transform="rotate(0,362,194)"/><circle cx="362" cy="208" r="7" transform="rotate(0,362,208)"/><circle cx="362" cy="236" r="7" transform="rotate(0,362,236)"/><circle cx="362" cy="250" r="7" transform="rotate(0,362,250)"/><circle cx="362" cy="264" r="7" transform="rotate(0,362,264)"/><circle cx="362" cy="292" r="7" transform="rotate(0,362,292)"/><circle cx="362" cy="306" r="7" transform="rotate(0,362,306)"/><circle cx="362" cy="320" r="7" transform="rotate(0,362,320)"/><circle cx="362" cy="334" r="7" transform="rotate(0,362,334)"/><circle cx="362" cy="348" r="7" transform="rotate(0,362,348)"/><circle cx="362" cy="362" r="7" transform="rotate(0,362,362)"/><circle cx="362" cy="376" r="7" transform="rotate(0,362,376)"/><circle cx="362" cy="390" r="7" transform="rotate(0,362,390)"/><circle cx="362" cy="404" r="7" transform="rotate(0,362,404)"/><circle cx="362" cy="418" r="7" transform="rotate(0,362,418)"/><circle cx="362" cy="460" r="7" transform="rotate(0,362,460)"/><circle cx="362" cy="474" r="7" transform="rotate(0,362,474)"/><circle cx="376" cy="138" r="7" transform="rotate(0,376,138)"/><circle cx="376" cy="152" r="7" transform="rotate(0,376,152)"/><circle cx="376" cy="180" r="7" transform="rotate(0,376,180)"/><circle cx="376" cy="194" r="7" transform="rotate(0,376,194)"/><circle cx="376" cy="222" r="7" transform="rotate(0,376,222)"/><circle cx="376" cy="278" r="7" transform="rotate(0,376,278)"/><circle cx="376" cy="362" r="7" transform="rotate(0,376,362)"/><circle cx="376" cy="418" r="7" transform="rotate(0,376,418)"/><circle cx="376" cy="446" r="7" transform="rotate(0,376,446)"/><circle cx="376" cy="460" r="7" transform="rotate(0,376,460)"/><circle cx="390" cy="152" r="7" transform="rotate(0,390,152)"/><circle cx="390" cy="166" r="7" transform="rotate(0,390,166)"/><circle cx="390" cy="250" r="7" transform="rotate(0,390,250)"/><circle cx="390" cy="320" r="7" transform="rotate(0,390,320)"/><circle cx="390" cy="334" r="7" transform="rotate(0,390,334)"/><circle cx="390" cy="362" r="7" transform="rotate(0,390,362)"/><circle cx="390" cy="390" r="7" transform="rotate(0,390,390)"/><circle cx="390" cy="418" r="7" transform="rotate(0,390,418)"/><circle cx="390" cy="432" r="7" transform="rotate(0,390,432)"/><circle cx="390" cy="460" r="7" transform="rotate(0,390,460)"/><circle cx="404" cy="152" r="7" transform="rotate(0,404,152)"/><circle cx="404" cy="166" r="7" transform="rotate(0,404,166)"/><circle cx="404" cy="208" r="7" transform="rotate(0,404,208)"/><circle cx="404" cy="222" r="7" transform="rotate(0,404,222)"/><circle cx="404" cy="236" r="7" transform="rotate(0,404,236)"/><circle cx="404" cy="292" r="7" transform="rotate(0,404,292)"/><circle cx="404" cy="306" r="7" transform="rotate(0,404,306)"/><circle cx="404" cy="320" r="7" transform="rotate(0,404,320)"/><circle cx="404" cy="362" r="7" transform="rotate(0,404,362)"/><circle cx="404" cy="418" r="7" transform="rotate(0,404,418)"/><circle cx="404" cy="460" r="7" transform="rotate(0,404,460)"/><circle cx="418" cy="138" r="7" transform="rotate(0,418,138)"/><circle cx="418" cy="152" r="7" transform="rotate(0,418,152)"/><circle cx="418" cy="180" r="7" transform="rotate(0,418,180)"/><circle cx="418" cy="194" r="7" transform="rotate(0,418,194)"/><circle cx="418" cy="306" r="7" transform="rotate(0,418,306)"/><circle cx="418" cy="362" r="7" transform="rotate(0,418,362)"/><circle cx="418" cy="376" r="7" transform="rotate(0,418,376)"/><circle cx="418" cy="390" r="7" transform="rotate(0,418,390)"/><circle cx="418" cy="404" r="7" transform="rotate(0,418,404)"/><circle cx="418" cy="418" r="7" transform="rotate(0,418,418)"/><circle cx="418" cy="432" r="7" transform="rotate(0,418,432)"/><circle cx="418" cy="474" r="7" transform="rotate(0,418,474)"/><circle cx="432" cy="194" r="7" transform="rotate(0,432,194)"/><circle cx="432" cy="278" r="7" transform="rotate(0,432,278)"/><circle cx="432" cy="292" r="7" transform="rotate(0,432,292)"/><circle cx="432" cy="320" r="7" transform="rotate(0,432,320)"/><circle cx="432" cy="334" r="7" transform="rotate(0,432,334)"/><circle cx="432" cy="348" r="7" transform="rotate(0,432,348)"/><circle cx="432" cy="362" r="7" transform="rotate(0,432,362)"/><circle cx="432" cy="390" r="7" transform="rotate(0,432,390)"/><circle cx="432" cy="404" r="7" transform="rotate(0,432,404)"/><circle cx="432" cy="418" r="7" transform="rotate(0,432,418)"/><circle cx="432" cy="432" r="7" transform="rotate(0,432,432)"/><circle cx="432" cy="460" r="7" transform="rotate(0,432,460)"/><circle cx="446" cy="152" r="7" transform="rotate(0,446,152)"/><circle cx="446" cy="194" r="7" transform="rotate(0,446,194)"/><circle cx="446" cy="208" r="7" transform="rotate(0,446,208)"/><circle cx="446" cy="222" r="7" transform="rotate(0,446,222)"/><circle cx="446" cy="236" r="7" transform="rotate(0,446,236)"/><circle cx="446" cy="250" r="7" transform="rotate(0,446,250)"/><circle cx="446" cy="278" r="7" transform="rotate(0,446,278)"/><circle cx="446" cy="292" r="7" transform="rotate(0,446,292)"/><circle cx="446" cy="362" r="7" transform="rotate(0,446,362)"/><circle cx="446" cy="390" r="7" transform="rotate(0,446,390)"/><circle cx="446" cy="404" r="7" transform="rotate(0,446,404)"/><circle cx="446" cy="418" r="7" transform="rotate(0,446,418)"/><circle cx="446" cy="446" r="7" transform="rotate(0,446,446)"/><circle cx="460" cy="138" r="7" transform="rotate(0,460,138)"/><circle cx="460" cy="152" r="7" transform="rotate(0,460,152)"/><circle cx="460" cy="166" r="7" transform="rotate(0,460,166)"/><circle cx="460" cy="180" r="7" transform="rotate(0,460,180)"/><circle cx="460" cy="208" r="7" transform="rotate(0,460,208)"/><circle cx="460" cy="250" r="7" transform="rotate(0,460,250)"/><circle cx="460" cy="292" r="7" transform="rotate(0,460,292)"/><circle cx="460" cy="306" r="7" transform="rotate(0,460,306)"/><circle cx="460" cy="320" r="7" transform="rotate(0,460,320)"/><circle cx="460" cy="348" r="7" transform="rotate(0,460,348)"/><circle cx="460" cy="362" r="7" transform="rotate(0,460,362)"/><circle cx="474" cy="152" r="7" transform="rotate(0,474,152)"/><circle cx="474" cy="208" r="7" transform="rotate(0,474,208)"/><circle cx="474" cy="222" r="7" transform="rotate(0,474,222)"/><circle cx="474" cy="236" r="7" transform="rotate(0,474,236)"/><circle cx="474" cy="250" r="7" transform="rotate(0,474,250)"/><circle cx="474" cy="278" r="7" transform="rotate(0,474,278)"/><circle cx="474" cy="306" r="7" transform="rotate(0,474,306)"/><circle cx="474" cy="320" r="7" transform="rotate(0,474,320)"/><circle cx="474" cy="362" r="7" transform="rotate(0,474,362)"/><circle cx="474" cy="432" r="7" transform="rotate(0,474,432)"/><circle cx="474" cy="474" r="7" transform="rotate(0,474,474)"/></clipPath><clipPath id="clip-path-corners-square-color-0-0"><path clip-rule="evenodd" d="M 19 54v 28a 35 35, 0, 0, 0, 35 35h 28a 35 35, 0, 0, 0, 35 -35v -28a 35 35, 0, 0, 0, -35 -35h -28a 35 35, 0, 0, 0, -35 35M 54 33h 28a 21 21, 0, 0, 1, 21 21v 28a 21 21, 0, 0, 1, -21 21h -28a 21 21, 0, 0, 1, -21 -21v -28a 21 21, 0, 0, 1, 21 -21" transform="rotate(0,68,68)"/></clipPath><clipPath id="clip-path-corners-dot-color-0-0"><rect x="47" y="47" width="42" height="42" transform="rotate(0,68,68)"/></clipPath><clipPath id="clip-path-corners-square-color-1-0"><path clip-rule="evenodd" d="M 383 54v 28a 35 35, 0, 0, 0, 35 35h 28a 35 35, 0, 0, 0, 35 -35v -28a 35 35, 0, 0, 0, -35 -35h -28a 35 35, 0, 0, 0, -35 35M 418 33h 28a 21 21, 0, 0, 1, 21 21v 28a 21 21, 0, 0, 1, -21 21h -28a 21 21, 0, 0, 1, -21 -21v -28a 21 21, 0, 0, 1, 21 -21" transform="rotate(90,432,68)"/></clipPath><clipPath id="clip-path-corners-dot-color-1-0"><rect x="411" y="47" width="42" height="42" transform="rotate(90,432,68)"/></clipPath><clipPath id="clip-path-corners-square-color-0-1"><path clip-rule="evenodd" d="M 19 418v 28a 35 35, 0, 0, 0, 35 35h 28a 35 35, 0, 0, 0, 35 -35v -28a 35 35, 0, 0, 0, -35 -35h -28a 35 35, 0, 0, 0, -35 35M 54 397h 28a 21 21, 0, 0, 1, 21 21v 28a 21 21, 0, 0, 1, -21 21h -28a 21 21, 0, 0, 1, -21 -21v -28a 21 21, 0, 0, 1, 21 -21" transform="rotate(-90,68,432)"/></clipPath><clipPath id="clip-path-corners-dot-color-0-1"><rect x="47" y="411" width="42" height="42" transform="rotate(-90,68,432)"/></clipPath></defs><rect x="0" y="0" height="500" width="500" clip-path="url('#clip-path-background-color')" fill="#fff"/><rect x="0" y="0" height="500" width="500" clip-path="url('#clip-path-dot-color')" fill="#0f8a61"/><rect x="19" y="19" height="98" width="98" clip-path="url('#clip-path-corners-square-color-0-0')" fill="#0f8a61"/><rect x="47" y="47" height="42" width="42" clip-path="url('#clip-path-corners-dot-color-0-0')" fill="#0f8a61"/><rect x="383" y="19" height="98" width="98" clip-path="url('#clip-path-corners-square-color-1-0')" fill="#0f8a61"/><rect x="411" y="47" height="42" width="42" clip-path="url('#clip-path-corners-dot-color-1-0')" fill="#0f8a61"/><rect x="19" y="383" height="98" width="98" clip-path="url('#clip-path-corners-square-color-0-1')" fill="#0f8a61"/><rect x="47" y="411" height="42" width="42" clip-path="url('#clip-path-corners-dot-color-0-1')" fill="#0f8a61"/></svg>